# Blender v2.63 (sub 0) OBJ File: 'base.blend'
# www.blender.org
o Plane_Plane.001
v 2.150000 -0.850000 0.850000
v -2.150000 -0.850000 0.850000
v 2.150000 0.850000 0.850000
v -2.150000 0.850000 0.850000
v 2.150000 -0.850000 0.950000
v -2.150000 -0.850000 0.950000
v 2.150000 0.850000 0.950000
v -2.150000 0.850000 0.950000
vn 0.000000 -0.000000 -1.000000
vn 0.000000 0.000000 1.000000
vn 0.000000 1.000000 0.000000
vn -1.000000 0.000000 -0.000000
vn 1.000000 0.000000 0.000000
vn 0.000000 -1.000000 -0.000000
s off
f 3//1 1//1 2//1
f 3//1 2//1 4//1
f 7//2 8//2 6//2
f 7//2 6//2 5//2
f 3//3 4//3 8//3
f 3//3 8//3 7//3
f 4//4 2//4 6//4
f 4//4 6//4 8//4
f 1//5 3//5 7//5
f 1//5 7//5 5//5
f 2//6 1//6 5//6
f 2//6 5//6 6//6
o Circle
v 2.250000 -3.650000 0.850000
v 2.150000 -3.650000 0.850000
v 2.250000 -3.650000 -0.850000
v 2.150000 -3.650000 -0.850000
v -2.150000 -3.650000 0.850000
v -2.250000 -3.650000 0.850000
v -2.150000 -3.650000 -0.850000
v -2.250000 -3.650000 -0.850000
v 2.250000 -0.850000 0.850000
v 2.150000 -0.850000 0.850000
v 2.250000 -0.850000 -0.850000
v 2.150000 -0.850000 -0.850000
v -2.150000 -0.850000 0.850000
v -2.250000 -0.850000 0.850000
v -2.150000 -0.850000 -0.850000
v -2.250000 -0.850000 -0.850000
v 2.250000 0.850000 0.850000
v 2.150000 0.850000 0.850000
v 2.250000 0.850000 -0.850000
v 2.150000 0.850000 -0.850000
v -2.150000 0.850000 0.850000
v -2.250000 0.850000 0.850000
v -2.150000 0.850000 -0.850000
v -2.250000 0.850000 -0.850000
v 2.150000 0.750000 0.850000
v -2.150000 0.750000 0.850000
v 2.150000 0.750000 -0.850000
v -2.150000 0.750000 -0.850000
v 2.150000 0.850000 0.850000
v -2.150000 0.850000 0.850000
v 2.150000 0.850000 -0.850000
v -2.150000 0.850000 -0.850000
v 2.149999 0.850001 2.850000
v 2.149999 0.833668 3.015827
v 2.149999 0.785299 3.175281
v 2.149999 0.706750 3.322235
v 2.149999 0.601042 3.451041
v 2.149999 0.472236 3.556749
v 2.149999 0.325282 3.635298
v 2.149999 0.165828 3.683668
v 2.149999 0.000001 3.700000
v 2.149999 -0.165826 3.683668
v 2.149999 -0.325280 3.635298
v 2.149999 -0.472234 3.556749
v 2.149999 -0.601040 3.451041
v 2.149999 -0.706748 3.322234
v 2.149999 -0.785297 3.175280
v 2.149999 -0.833667 3.015826
v 2.149999 -0.849999 2.849999
v 2.149999 0.000001 2.605528
v 2.149999 0.047695 2.610225
v 2.149999 0.093556 2.624137
v 2.149999 0.135823 2.646729
v 2.149999 0.172869 2.677132
v 2.149999 0.203272 2.714178
v 2.149999 0.225864 2.756444
v 2.149999 0.239776 2.802306
v 2.149999 0.244473 2.850000
v 2.149999 0.239776 2.897694
v 2.149999 0.225864 2.943555
v 2.149999 0.203272 2.985821
v 2.149999 0.172869 3.022868
v 2.149999 0.135823 3.053271
v 2.149999 0.093556 3.075863
v 2.149999 0.047695 3.089774
v 2.149999 0.000001 3.094472
v 2.149999 -0.047693 3.089774
v 2.149999 -0.093554 3.075862
v 2.149999 -0.135821 3.053271
v 2.149999 -0.172867 3.022867
v 2.149999 -0.203270 2.985821
v 2.149999 -0.225862 2.943555
v 2.149999 -0.239774 2.897694
v 2.149999 -0.244471 2.850000
v 2.149999 -0.239774 2.802305
v 2.149999 -0.225862 2.756444
v 2.149999 -0.203270 2.714178
v 2.149999 -0.172867 2.677132
v 2.149999 -0.135820 2.646729
v 2.149999 -0.093554 2.624137
v 2.149999 -0.047693 2.610225
v 2.150000 -0.850000 0.850000
v 2.150000 0.850000 0.850000
v 2.249999 0.850001 2.850000
v 2.249999 0.833668 3.015827
v 2.249999 0.785299 3.175281
v 2.249999 0.706750 3.322235
v 2.249999 0.601042 3.451041
v 2.249999 0.472236 3.556749
v 2.249999 0.325282 3.635298
v 2.249999 0.165828 3.683668
v 2.249999 0.000001 3.700000
v 2.249999 -0.165826 3.683668
v 2.249999 -0.325280 3.635298
v 2.249999 -0.472234 3.556749
v 2.249999 -0.601040 3.451041
v 2.249999 -0.706748 3.322234
v 2.249999 -0.785297 3.175280
v 2.249999 -0.833667 3.015826
v 2.249999 -0.849999 2.849999
v 2.249999 0.000001 2.605528
v 2.249999 0.047695 2.610225
v 2.249999 0.093556 2.624137
v 2.249999 0.135823 2.646729
v 2.249999 0.172869 2.677132
v 2.249999 0.203272 2.714178
v 2.249999 0.225864 2.756444
v 2.249999 0.239776 2.802306
v 2.249999 0.244473 2.850000
v 2.249999 0.239776 2.897694
v 2.249999 0.225864 2.943555
v 2.249999 0.203272 2.985821
v 2.249999 0.172869 3.022868
v 2.249999 0.135823 3.053271
v 2.249999 0.093556 3.075863
v 2.249999 0.047695 3.089774
v 2.249999 0.000001 3.094472
v 2.249999 -0.047693 3.089774
v 2.249999 -0.093554 3.075862
v 2.249999 -0.135821 3.053271
v 2.249999 -0.172867 3.022867
v 2.249999 -0.203270 2.985821
v 2.249999 -0.225862 2.943555
v 2.249999 -0.239774 2.897694
v 2.249999 -0.244471 2.850000
v 2.249999 -0.239774 2.802305
v 2.249999 -0.225862 2.756444
v 2.249999 -0.203270 2.714178
v 2.249999 -0.172867 2.677132
v 2.249999 -0.135820 2.646729
v 2.249999 -0.093554 2.624137
v 2.249999 -0.047693 2.610225
v 2.250000 -0.850000 0.850000
v 2.250000 0.850000 0.850000
v -2.250001 0.850001 2.850000
v -2.250001 0.833668 3.015827
v -2.250001 0.785299 3.175281
v -2.250001 0.706750 3.322235
v -2.250001 0.601042 3.451041
v -2.250001 0.472236 3.556749
v -2.250001 0.325282 3.635298
v -2.250001 0.165828 3.683668
v -2.250001 0.000001 3.700000
v -2.250001 -0.165826 3.683668
v -2.250001 -0.325280 3.635298
v -2.250001 -0.472234 3.556749
v -2.250001 -0.601040 3.451041
v -2.250001 -0.706748 3.322234
v -2.250001 -0.785297 3.175280
v -2.250001 -0.833667 3.015826
v -2.250001 -0.849999 2.849999
v -2.250001 0.000001 2.605528
v -2.250001 0.047695 2.610225
v -2.250001 0.093556 2.624137
v -2.250001 0.135823 2.646729
v -2.250001 0.172869 2.677132
v -2.250001 0.203272 2.714178
v -2.250001 0.225864 2.756444
v -2.250001 0.239776 2.802306
v -2.250001 0.244473 2.850000
v -2.250001 0.239776 2.897694
v -2.250001 0.225864 2.943555
v -2.250001 0.203272 2.985821
v -2.250001 0.172869 3.022868
v -2.250001 0.135823 3.053271
v -2.250001 0.093556 3.075863
v -2.250001 0.047695 3.089774
v -2.250001 0.000001 3.094472
v -2.250001 -0.047693 3.089774
v -2.250001 -0.093554 3.075862
v -2.250001 -0.135821 3.053271
v -2.250001 -0.172867 3.022867
v -2.250001 -0.203270 2.985821
v -2.250001 -0.225862 2.943555
v -2.250001 -0.239774 2.897694
v -2.250001 -0.244471 2.850000
v -2.250001 -0.239774 2.802305
v -2.250001 -0.225862 2.756444
v -2.250001 -0.203270 2.714178
v -2.250001 -0.172867 2.677132
v -2.250001 -0.135820 2.646729
v -2.250001 -0.093554 2.624137
v -2.250001 -0.047693 2.610225
v -2.250000 -0.850000 0.850000
v -2.250000 0.850000 0.850000
v -2.150001 0.850001 2.850000
v -2.150001 0.833668 3.015827
v -2.150001 0.785299 3.175281
v -2.150001 0.706750 3.322235
v -2.150001 0.601042 3.451041
v -2.150001 0.472236 3.556749
v -2.150001 0.325282 3.635298
v -2.150001 0.165828 3.683668
v -2.150001 0.000001 3.700000
v -2.150001 -0.165826 3.683668
v -2.150001 -0.325280 3.635298
v -2.150001 -0.472234 3.556749
v -2.150001 -0.601040 3.451041
v -2.150001 -0.706748 3.322234
v -2.150001 -0.785297 3.175280
v -2.150001 -0.833667 3.015826
v -2.150001 -0.849999 2.849999
v -2.150001 0.000001 2.605528
v -2.150001 0.047695 2.610225
v -2.150001 0.093556 2.624137
v -2.150001 0.135823 2.646729
v -2.150001 0.172869 2.677132
v -2.150001 0.203272 2.714178
v -2.150001 0.225864 2.756444
v -2.150001 0.239776 2.802306
v -2.150001 0.244473 2.850000
v -2.150001 0.239776 2.897694
v -2.150001 0.225864 2.943555
v -2.150001 0.203272 2.985821
v -2.150001 0.172869 3.022868
v -2.150001 0.135823 3.053271
v -2.150001 0.093556 3.075863
v -2.150001 0.047695 3.089774
v -2.150001 0.000001 3.094472
v -2.150001 -0.047693 3.089774
v -2.150001 -0.093554 3.075862
v -2.150001 -0.135821 3.053271
v -2.150001 -0.172867 3.022867
v -2.150001 -0.203270 2.985821
v -2.150001 -0.225862 2.943555
v -2.150001 -0.239774 2.897694
v -2.150001 -0.244471 2.850000
v -2.150001 -0.239774 2.802305
v -2.150001 -0.225862 2.756444
v -2.150001 -0.203270 2.714178
v -2.150001 -0.172867 2.677132
v -2.150001 -0.135820 2.646729
v -2.150001 -0.093554 2.624137
v -2.150001 -0.047693 2.610225
v -2.150000 -0.850000 0.850000
v -2.150000 0.850000 0.850000
vn -1.000000 -0.000000 -0.000001
vn -1.000000 0.000001 -0.000000
vn -1.000000 -0.000001 -0.000000
vn 1.000000 -0.000001 0.000000
vn 1.000000 -0.000000 0.000001
vn 1.000000 0.000001 0.000000
vn 0.000000 0.995185 0.098018
vn 0.000000 0.956940 0.290285
vn 0.000000 0.881922 0.471396
vn 0.000000 0.773012 0.634392
vn 0.000000 0.634393 0.773011
vn 0.000000 0.471396 0.881922
vn 0.000000 0.290285 0.956940
vn 0.000000 0.098016 0.995185
vn 0.000000 -0.098016 0.995185
vn 0.000000 -0.290286 0.956940
vn 0.000000 -0.471397 0.881921
vn 0.000000 -0.634394 0.773010
vn 0.000000 -0.773011 0.634393
vn 0.000000 -0.881922 0.471396
vn 0.000000 -0.956941 0.290283
vn 0.000000 -0.995185 0.098016
vn 0.000000 0.773009 0.634395
vn 0.000000 0.634392 0.773011
vn 0.000000 0.471395 0.881922
vn 0.000000 0.290282 0.956941
vn 0.000000 0.098020 0.995184
vn 0.000000 -0.098019 0.995185
vn 0.000000 -0.290287 0.956940
vn 0.000000 -0.471395 0.881922
vn 0.000000 -0.634392 0.773011
vn 0.000000 -0.773011 0.634392
vn 0.000000 -0.881922 0.471395
vn 0.000000 -0.956940 0.290287
vn 0.000000 -0.995185 0.098014
vn 0.000000 -0.995185 -0.098015
vn 0.000000 -0.956940 -0.290287
vn 0.000000 -0.881922 -0.471395
vn 0.000000 -0.773011 -0.634392
vn 0.000000 -0.634392 -0.773011
vn 0.000000 -0.471399 -0.881920
vn 0.000000 -0.290282 -0.956941
vn 0.000000 -0.098019 -0.995185
vn 0.000000 0.098019 -0.995185
vn 0.000000 0.290287 -0.956940
vn 0.000000 0.471395 -0.881922
vn 0.000000 0.634395 -0.773009
vn 0.000000 0.773011 -0.634392
vn 0.000000 0.881921 -0.471397
vn 0.000000 0.956940 -0.290285
vn 0.000000 0.995185 -0.098015
vn 0.000000 0.995185 0.098019
vn 0.000000 0.956940 0.290287
vn 0.000000 0.881922 0.471395
s off
f 11//6 9//6 10//6
f 11//6 10//6 12//6
f 15//6 13//6 14//6
f 15//6 14//6 16//6
f 29//2 30//2 22//2
f 29//2 22//2 21//2
f 19//1 20//1 28//1
f 19//1 28//1 27//1
f 12//4 10//4 18//4
f 12//4 18//4 20//4
f 15//1 16//1 24//1
f 15//1 24//1 23//1
f 11//1 12//1 20//1
f 11//1 20//1 19//1
f 21//2 22//2 14//2
f 21//2 14//2 13//2
f 13//5 15//5 23//5
f 13//5 23//5 21//5
f 10//2 9//2 17//2
f 10//2 17//2 18//2
f 9//5 11//5 19//5
f 9//5 19//5 17//5
f 16//4 14//4 22//4
f 16//4 22//4 24//4
f 27//3 28//3 26//3
f 27//3 26//3 25//3
f 31//3 32//3 30//3
f 31//3 30//3 29//3
f 21//5 23//5 31//5
f 21//5 31//5 29//5
f 25//2 26//2 18//2
f 25//2 18//2 17//2
f 17//5 19//5 27//5
f 17//5 27//5 25//5
f 24//4 22//4 30//4
f 24//4 30//4 32//4
f 20//4 18//4 26//4
f 20//4 26//4 28//4
f 23//1 24//1 32//1
f 23//1 32//1 31//1
f 35//6 33//6 34//6
f 35//6 34//6 36//6
f 39//3 40//3 38//3
f 39//3 38//3 37//3
f 37//2 38//2 34//2
f 37//2 34//2 33//2
f 35//1 36//1 40//1
f 35//1 40//1 39//1
f 36//4 34//4 38//4
f 36//4 38//4 40//4
f 33//5 35//5 39//5
f 33//5 39//5 37//5
f 91//7 66//7 41//7
f 66//8 91//8 65//8
f 65//8 91//8 64//8
f 64//8 91//8 63//8
f 63//4 91//4 62//4
f 62//4 91//4 61//4
f 61//4 91//4 60//4
f 60//4 91//4 59//4
f 59//7 91//7 58//7
f 58//7 91//7 90//7
f 58//7 90//7 89//7
f 89//4 90//4 88//4
f 88//4 90//4 87//4
f 87//4 90//4 86//4
f 90//4 85//4 86//4
f 85//9 90//9 84//9
f 84//9 90//9 83//9
f 83//9 90//9 82//9
f 90//4 57//4 82//4
f 82//4 57//4 56//4
f 74//4 50//4 49//4
f 74//4 49//4 48//4
f 74//4 48//4 73//4
f 75//4 50//4 74//4
f 75//4 51//4 50//4
f 76//4 51//4 75//4
f 76//4 52//4 51//4
f 77//4 52//4 76//4
f 77//4 53//4 52//4
f 78//4 53//4 77//4
f 78//4 54//4 53//4
f 79//4 54//4 78//4
f 79//4 55//4 54//4
f 80//4 55//4 79//4
f 80//4 56//4 55//4
f 81//4 56//4 80//4
f 82//4 56//4 81//4
f 66//4 42//4 41//4
f 67//4 42//4 66//4
f 68//4 42//4 67//4
f 68//4 43//4 42//4
f 69//4 43//4 68//4
f 69//4 44//4 43//4
f 70//4 44//4 69//4
f 70//4 45//4 44//4
f 71//4 45//4 70//4
f 71//4 46//4 45//4
f 72//4 46//4 71//4
f 72//4 47//4 46//4
f 73//4 47//4 72//4
f 73//9 48//9 47//9
f 142//5 92//5 117//5
f 117//10 116//10 142//10
f 116//10 115//10 142//10
f 115//10 114//10 142//10
f 114//5 113//5 142//5
f 113//5 112//5 142//5
f 112//5 111//5 142//5
f 111//5 110//5 142//5
f 110//11 109//11 142//11
f 109//11 141//11 142//11
f 109//11 140//11 141//11
f 140//11 139//11 141//11
f 139//11 138//11 141//11
f 138//11 137//11 141//11
f 141//12 137//12 136//12
f 136//12 135//12 141//12
f 135//12 134//12 141//12
f 134//12 133//12 141//12
f 141//11 133//11 108//11
f 133//5 107//5 108//5
f 125//5 100//5 101//5
f 125//5 99//5 100//5
f 125//5 124//5 99//5
f 126//5 125//5 101//5
f 126//5 101//5 102//5
f 127//5 126//5 102//5
f 127//5 102//5 103//5
f 128//5 127//5 103//5
f 128//5 103//5 104//5
f 129//5 128//5 104//5
f 129//5 104//5 105//5
f 130//5 129//5 105//5
f 130//5 105//5 106//5
f 131//5 130//5 106//5
f 131//5 106//5 107//5
f 132//5 131//5 107//5
f 133//5 132//5 107//5
f 117//5 92//5 93//5
f 118//5 117//5 93//5
f 119//5 118//5 93//5
f 119//5 93//5 94//5
f 120//5 119//5 94//5
f 120//5 94//5 95//5
f 121//5 120//5 95//5
f 121//5 95//5 96//5
f 122//5 121//5 96//5
f 122//5 96//5 97//5
f 123//5 122//5 97//5
f 123//5 97//5 98//5
f 124//5 123//5 98//5
f 124//5 98//5 99//5
f 92//3 142//3 91//3
f 92//3 91//3 41//3
f 93//13 92//13 41//13
f 93//13 41//13 42//13
f 94//14 93//14 42//14
f 94//14 42//14 43//14
f 95//15 94//15 43//15
f 95//15 43//15 44//15
f 96//16 95//16 44//16
f 96//16 44//16 45//16
f 97//17 96//17 45//17
f 97//17 45//17 46//17
f 98//18 97//18 46//18
f 98//18 46//18 47//18
f 99//19 98//19 47//19
f 99//19 47//19 48//19
f 100//20 99//20 48//20
f 100//20 48//20 49//20
f 101//21 100//21 49//21
f 101//21 49//21 50//21
f 102//22 101//22 50//22
f 102//22 50//22 51//22
f 103//23 102//23 51//23
f 103//23 51//23 52//23
f 104//24 103//24 52//24
f 104//24 52//24 53//24
f 105//25 104//25 53//25
f 105//25 53//25 54//25
f 106//26 105//26 54//26
f 106//26 54//26 55//26
f 107//27 106//27 55//27
f 107//27 55//27 56//27
f 108//28 107//28 56//28
f 108//28 56//28 57//28
f 57//6 90//6 141//6
f 57//6 141//6 108//6
f 90//1 91//1 142//1
f 90//1 142//1 141//1
f 137//29 86//29 85//29
f 137//29 85//29 136//29
f 138//30 87//30 86//30
f 138//30 86//30 137//30
f 139//31 88//31 87//31
f 139//31 87//31 138//31
f 140//32 89//32 88//32
f 140//32 88//32 139//32
f 89//33 140//33 109//33
f 89//33 109//33 58//33
f 110//34 59//34 58//34
f 110//34 58//34 109//34
f 111//35 60//35 59//35
f 111//35 59//35 110//35
f 112//36 61//36 60//36
f 112//36 60//36 111//36
f 113//37 62//37 61//37
f 113//37 61//37 112//37
f 114//38 63//38 62//38
f 114//38 62//38 113//38
f 115//39 64//39 63//39
f 115//39 63//39 114//39
f 116//40 65//40 64//40
f 116//40 64//40 115//40
f 117//41 66//41 65//41
f 117//41 65//41 116//41
f 118//42 67//42 66//42
f 118//42 66//42 117//42
f 119//43 68//43 67//43
f 119//43 67//43 118//43
f 120//44 69//44 68//44
f 120//44 68//44 119//44
f 121//45 70//45 69//45
f 121//45 69//45 120//45
f 122//46 71//46 70//46
f 122//46 70//46 121//46
f 123//47 72//47 71//47
f 123//47 71//47 122//47
f 124//48 73//48 72//48
f 124//48 72//48 123//48
f 125//49 74//49 73//49
f 125//49 73//49 124//49
f 126//50 75//50 74//50
f 126//50 74//50 125//50
f 127//51 76//51 75//51
f 127//51 75//51 126//51
f 128//52 77//52 76//52
f 128//52 76//52 127//52
f 129//53 78//53 77//53
f 129//53 77//53 128//53
f 130//54 79//54 78//54
f 130//54 78//54 129//54
f 131//55 80//55 79//55
f 131//55 79//55 130//55
f 132//56 81//56 80//56
f 132//56 80//56 131//56
f 133//57 82//57 81//57
f 133//57 81//57 132//57
f 134//58 83//58 82//58
f 134//58 82//58 133//58
f 135//59 84//59 83//59
f 135//59 83//59 134//59
f 136//60 85//60 84//60
f 136//60 84//60 135//60
f 193//7 168//7 143//7
f 168//8 193//8 167//8
f 167//8 193//8 166//8
f 166//8 193//8 165//8
f 165//4 193//4 164//4
f 164//4 193//4 163//4
f 163//4 193//4 162//4
f 162//4 193//4 161//4
f 161//7 193//7 160//7
f 160//7 193//7 192//7
f 160//7 192//7 191//7
f 191//4 192//4 190//4
f 190//4 192//4 189//4
f 189//4 192//4 188//4
f 192//4 187//4 188//4
f 187//9 192//9 186//9
f 186//9 192//9 185//9
f 185//9 192//9 184//9
f 192//4 159//4 184//4
f 184//4 159//4 158//4
f 176//4 152//4 151//4
f 176//4 151//4 150//4
f 176//4 150//4 175//4
f 177//4 152//4 176//4
f 177//4 153//4 152//4
f 178//4 153//4 177//4
f 178//4 154//4 153//4
f 179//4 154//4 178//4
f 179//4 155//4 154//4
f 180//4 155//4 179//4
f 180//4 156//4 155//4
f 181//4 156//4 180//4
f 181//4 157//4 156//4
f 182//4 157//4 181//4
f 182//4 158//4 157//4
f 183//4 158//4 182//4
f 184//4 158//4 183//4
f 168//4 144//4 143//4
f 169//4 144//4 168//4
f 170//4 144//4 169//4
f 170//4 145//4 144//4
f 171//4 145//4 170//4
f 171//4 146//4 145//4
f 172//4 146//4 171//4
f 172//4 147//4 146//4
f 173//4 147//4 172//4
f 173//4 148//4 147//4
f 174//4 148//4 173//4
f 174//4 149//4 148//4
f 175//4 149//4 174//4
f 175//9 150//9 149//9
f 244//5 194//5 219//5
f 219//10 218//10 244//10
f 218//10 217//10 244//10
f 217//10 216//10 244//10
f 216//5 215//5 244//5
f 215//5 214//5 244//5
f 214//5 213//5 244//5
f 213//5 212//5 244//5
f 212//11 211//11 244//11
f 211//11 243//11 244//11
f 211//11 242//11 243//11
f 242//11 241//11 243//11
f 241//11 240//11 243//11
f 240//11 239//11 243//11
f 243//12 239//12 238//12
f 238//12 237//12 243//12
f 237//12 236//12 243//12
f 236//12 235//12 243//12
f 243//11 235//11 210//11
f 235//5 209//5 210//5
f 227//5 202//5 203//5
f 227//5 201//5 202//5
f 227//5 226//5 201//5
f 228//5 227//5 203//5
f 228//5 203//5 204//5
f 229//5 228//5 204//5
f 229//5 204//5 205//5
f 230//5 229//5 205//5
f 230//5 205//5 206//5
f 231//5 230//5 206//5
f 231//5 206//5 207//5
f 232//5 231//5 207//5
f 232//5 207//5 208//5
f 233//5 232//5 208//5
f 233//5 208//5 209//5
f 234//5 233//5 209//5
f 235//5 234//5 209//5
f 219//5 194//5 195//5
f 220//5 219//5 195//5
f 221//5 220//5 195//5
f 221//5 195//5 196//5
f 222//5 221//5 196//5
f 222//5 196//5 197//5
f 223//5 222//5 197//5
f 223//5 197//5 198//5
f 224//5 223//5 198//5
f 224//5 198//5 199//5
f 225//5 224//5 199//5
f 225//5 199//5 200//5
f 226//5 225//5 200//5
f 226//5 200//5 201//5
f 194//3 244//3 193//3
f 194//3 193//3 143//3
f 195//13 194//13 143//13
f 195//13 143//13 144//13
f 196//14 195//14 144//14
f 196//14 144//14 145//14
f 197//15 196//15 145//15
f 197//15 145//15 146//15
f 198//16 197//16 146//16
f 198//16 146//16 147//16
f 199//17 198//17 147//17
f 199//17 147//17 148//17
f 200//18 199//18 148//18
f 200//18 148//18 149//18
f 201//19 200//19 149//19
f 201//19 149//19 150//19
f 202//20 201//20 150//20
f 202//20 150//20 151//20
f 203//21 202//21 151//21
f 203//21 151//21 152//21
f 204//22 203//22 152//22
f 204//22 152//22 153//22
f 205//23 204//23 153//23
f 205//23 153//23 154//23
f 206//24 205//24 154//24
f 206//24 154//24 155//24
f 207//25 206//25 155//25
f 207//25 155//25 156//25
f 208//26 207//26 156//26
f 208//26 156//26 157//26
f 209//27 208//27 157//27
f 209//27 157//27 158//27
f 210//28 209//28 158//28
f 210//28 158//28 159//28
f 159//6 192//6 243//6
f 159//6 243//6 210//6
f 192//1 193//1 244//1
f 192//1 244//1 243//1
f 239//29 188//29 187//29
f 239//29 187//29 238//29
f 240//30 189//30 188//30
f 240//30 188//30 239//30
f 241//31 190//31 189//31
f 241//31 189//31 240//31
f 242//32 191//32 190//32
f 242//32 190//32 241//32
f 191//33 242//33 211//33
f 191//33 211//33 160//33
f 212//34 161//34 160//34
f 212//34 160//34 211//34
f 213//35 162//35 161//35
f 213//35 161//35 212//35
f 214//36 163//36 162//36
f 214//36 162//36 213//36
f 215//37 164//37 163//37
f 215//37 163//37 214//37
f 216//38 165//38 164//38
f 216//38 164//38 215//38
f 217//39 166//39 165//39
f 217//39 165//39 216//39
f 218//40 167//40 166//40
f 218//40 166//40 217//40
f 219//41 168//41 167//41
f 219//41 167//41 218//41
f 220//42 169//42 168//42
f 220//42 168//42 219//42
f 221//43 170//43 169//43
f 221//43 169//43 220//43
f 222//44 171//44 170//44
f 222//44 170//44 221//44
f 223//45 172//45 171//45
f 223//45 171//45 222//45
f 224//46 173//46 172//46
f 224//46 172//46 223//46
f 225//47 174//47 173//47
f 225//47 173//47 224//47
f 226//48 175//48 174//48
f 226//48 174//48 225//48
f 227//49 176//49 175//49
f 227//49 175//49 226//49
f 228//50 177//50 176//50
f 228//50 176//50 227//50
f 229//51 178//51 177//51
f 229//51 177//51 228//51
f 230//52 179//52 178//52
f 230//52 178//52 229//52
f 231//53 180//53 179//53
f 231//53 179//53 230//53
f 232//54 181//54 180//54
f 232//54 180//54 231//54
f 233//55 182//55 181//55
f 233//55 181//55 232//55
f 234//56 183//56 182//56
f 234//56 182//56 233//56
f 235//57 184//57 183//57
f 235//57 183//57 234//57
f 236//58 185//58 184//58
f 236//58 184//58 235//58
f 237//59 186//59 185//59
f 237//59 185//59 236//59
f 238//60 187//60 186//60
f 238//60 186//60 237//60
